<svg width="21" height="21" viewBox="0 0 21 21" fill="none" xmlns="http://www.w3.org/2000/svg">
<path d="M10.1888 18.2145C11.3394 18.2145 12.2721 17.2818 12.2721 16.1312C12.2721 15.8349 12.2103 15.553 12.0988 15.2979H8.27882C8.16732 15.553 8.10547 15.8349 8.10547 16.1312C8.10547 17.2818 9.03821 18.2145 10.1888 18.2145Z" stroke="#30455C" stroke-width="1.8"/>
<path d="M10.1895 2.79785C7.19791 2.79785 4.77279 5.63964 4.77279 8.63118V11.409C4.77279 12.2833 4.36114 13.1066 3.66168 13.6312C2.94981 14.1651 3.3274 15.2979 4.21723 15.2979H16.1617C17.0515 15.2979 17.4291 14.1651 16.7172 13.6312C16.0178 13.1066 15.6061 12.2833 15.6061 11.409V8.63118C15.6061 5.63964 13.181 2.79785 10.1895 2.79785Z" stroke="#30455C" stroke-width="1.8" stroke-linecap="round" stroke-linejoin="round"/>
</svg>
